<svg width="180" height="180" viewBox="0 0 180 180" fill="none" xmlns="http://www.w3.org/2000/svg">
  <!-- Background with rounded corners for Apple devices -->
  <rect width="180" height="180" rx="40" fill="oklch(0.65 0.18 50)"/>
  
  <!-- ScanText icon centered and scaled -->
  <g transform="translate(40, 40) scale(4.2)">
    <path d="M3 7V5a2 2 0 0 1 2-2h2" stroke="white" stroke-width="1.5" stroke-linecap="round" stroke-linejoin="round"/>
    <path d="M17 3h2a2 2 0 0 1 2 2v2" stroke="white" stroke-width="1.5" stroke-linecap="round" stroke-linejoin="round"/>
    <path d="M21 17v2a2 2 0 0 1-2 2h-2" stroke="white" stroke-width="1.5" stroke-linecap="round" stroke-linejoin="round"/>
    <path d="M7 21H5a2 2 0 0 1-2-2v-2" stroke="white" stroke-width="1.5" stroke-linecap="round" stroke-linejoin="round"/>
    <path d="M7 8h8" stroke="white" stroke-width="1.5" stroke-linecap="round"/>
    <path d="M7 12h10" stroke="white" stroke-width="1.5" stroke-linecap="round"/>
    <path d="M7 16h6" stroke="white" stroke-width="1.5" stroke-linecap="round"/>
  </g>
</svg>
