<svg width="32" height="32" viewBox="0 0 24 24" fill="none" xmlns="http://www.w3.org/2000/svg">
  <!-- Background circle -->
  <rect width="24" height="24" rx="4" fill="oklch(0.65 0.18 50)"/>
  
  <!-- ScanText icon in white -->
  <g transform="translate(12 12) scale(0.8) translate(-12 -12)">
    <path d="M3 7V5a2 2 0 0 1 2-2h2" stroke="white" stroke-width="1.5" stroke-linecap="round" stroke-linejoin="round"/>
    <path d="M17 3h2a2 2 0 0 1 2 2v2" stroke="white" stroke-width="1.5" stroke-linecap="round" stroke-linejoin="round"/>
    <path d="M21 17v2a2 2 0 0 1-2 2h-2" stroke="white" stroke-width="1.5" stroke-linecap="round" stroke-linejoin="round"/>
    <path d="M7 21H5a2 2 0 0 1-2-2v-2" stroke="white" stroke-width="1.5" stroke-linecap="round" stroke-linejoin="round"/>
    <path d="M7 8h8" stroke="white" stroke-width="1.5" stroke-linecap="round"/>
    <path d="M7 12h10" stroke="white" stroke-width="1.5" stroke-linecap="round"/>
    <path d="M7 16h6" stroke="white" stroke-width="1.5" stroke-linecap="round"/>
  </g>
</svg>
